<svg width="261" height="50" viewBox="0 0 261 50" fill="none" xmlns="http://www.w3.org/2000/svg">
<path d="M12.0515 33.48V33.288H31.8275V33.48H12.0515ZM24.6275 0.0399971L41.5555 48.808H46.0995V49H26.6435V48.808H33.2675L20.5635 9.384L6.7395 48.808H14.4515V49H0.3715V48.808H6.5475L23.5715 0.0399971H24.6275ZM59.054 24.456V24.296H68.558C70.606 24.296 72.334 23.8373 73.742 22.92C75.1713 22.0027 76.2487 20.6907 76.974 18.984C77.7207 17.2773 78.094 15.24 78.094 12.872C78.094 10.4827 77.7207 8.41333 76.974 6.664C76.2487 4.91466 75.1713 3.57066 73.742 2.632C72.334 1.672 70.606 1.192 68.558 1.192H47.534V0.999996H69.006C72.334 0.999996 75.2353 1.416 77.71 2.248C80.1847 3.05866 82.1047 4.33866 83.47 6.088C84.8567 7.83733 85.55 10.0987 85.55 12.872C85.55 15.6453 84.8993 17.8853 83.598 19.592C82.318 21.2773 80.4513 22.5147 77.998 23.304C75.5447 24.072 72.5473 24.456 69.006 24.456H59.054ZM47.534 49V48.808H68.43V49H47.534ZM54.382 48.904V1.096H61.55V48.904H54.382ZM84.686 49.352C82.7447 49.352 81.23 49.0107 80.142 48.328C79.054 47.624 78.254 46.6853 77.742 45.512C77.2513 44.3173 76.9313 42.984 76.782 41.512C76.654 40.0187 76.5793 38.4933 76.558 36.936C76.5367 35.3573 76.4513 33.832 76.302 32.36C76.174 30.8667 75.854 29.5333 75.342 28.36C74.8513 27.1653 74.0513 26.2267 72.942 25.544C71.8327 24.84 70.2967 24.488 68.334 24.488H59.054V24.328H70.702C73.7953 24.328 76.2487 24.776 78.062 25.672C79.8753 26.5467 81.23 27.72 82.126 29.192C83.022 30.6427 83.6087 32.2427 83.886 33.992C84.1847 35.7413 84.334 37.4907 84.334 39.24C84.3553 40.9893 84.3873 42.6 84.43 44.072C84.4727 45.5227 84.6967 46.696 85.102 47.592C85.5073 48.4667 86.2753 48.904 87.406 48.904C88.0887 48.904 88.7287 48.8293 89.326 48.68C89.9447 48.5307 90.478 48.3493 90.926 48.136L90.99 48.264C90.478 48.5413 89.6887 48.7867 88.622 49C87.5553 49.2347 86.2433 49.352 84.686 49.352ZM114.887 49.64L97.0955 0.999996H104.295L118.503 39.24L132.039 0.999996H132.231L115.079 49.64H114.887ZM97.1915 0.999996V48.808H102.151V49H92.3595V48.808H96.9995V1.192H92.0715V0.999996H97.1915ZM143.784 0.999996V1.192H139.304V48.808H143.784V49H127.015V48.808H132.135V0.999996H143.784ZM156.914 33.48V33.288H176.69V33.48H156.914ZM169.49 0.0399971L186.418 48.808H190.962V49H171.506V48.808H178.13L165.426 9.384L151.602 48.808H159.314V49H145.234V48.808H151.41L168.434 0.0399971H169.49ZM198.956 0.999996V48.808H206.604V49H192.396V48.808H198.764V1.192H192.396V0.999996H198.956ZM237.292 0.999996V1.192H230.572V49.64H230.348L198.828 0.999996H207.436L230.38 37.416V1.192H222.796V0.999996H237.292ZM238.747 49V48.808H245.755V1.192H238.747V0.999996H260.635V1.192H252.955V48.808H260.635V49H238.747Z" fill="#F7F8FA"/>
</svg>
