<svg width="156" height="48" viewBox="0 0 156 48" fill="none" xmlns="http://www.w3.org/2000/svg">
<path d="M26.3493 41.272V47H0.0452485V1.048H6.86125V41.272H26.3493ZM60.5947 41.464L60.5627 47H32.0827V1.048H60.5627V6.584H38.9307V21.144H56.3387V26.488H38.9307V41.464H60.5947ZM104.624 24.632V42.552C102.299 44.216 99.8242 45.464 97.2002 46.296C94.5762 47.1067 91.7176 47.512 88.6242 47.512C84.9122 47.512 81.5522 46.936 78.5442 45.784C75.5576 44.632 73.0082 43.0213 70.8962 40.952C68.7842 38.8827 67.1522 36.408 66.0002 33.528C64.8696 30.648 64.3042 27.48 64.3042 24.024C64.3042 20.5467 64.8482 17.368 65.9362 14.488C67.0456 11.5867 68.6242 9.112 70.6722 7.064C72.7202 4.99467 75.1949 3.39466 78.0962 2.264C81.0189 1.112 84.2936 0.535999 87.9202 0.535999C89.7549 0.535999 91.4509 0.674666 93.0082 0.952C94.5869 1.22933 96.0482 1.624 97.3922 2.136C98.7362 2.648 99.9736 3.26667 101.104 3.992C102.256 4.696 103.323 5.496 104.304 6.392L102.352 9.464C102.054 9.95466 101.659 10.264 101.168 10.392C100.678 10.52 100.144 10.4027 99.5682 10.04C99.0136 9.72 98.3949 9.34666 97.7122 8.92C97.0509 8.49333 96.2509 8.09866 95.3122 7.736C94.3949 7.37333 93.3176 7.064 92.0802 6.808C90.8429 6.552 89.3816 6.424 87.6962 6.424C85.1789 6.424 82.9069 6.84 80.8802 7.672C78.8536 8.48266 77.1256 9.656 75.6962 11.192C74.2669 12.728 73.1682 14.584 72.4002 16.76C71.6322 18.9147 71.2482 21.336 71.2482 24.024C71.2482 26.84 71.6536 29.368 72.4642 31.608C73.2749 33.8267 74.4162 35.7147 75.8882 37.272C77.3816 38.808 79.1842 39.9813 81.2962 40.792C83.4296 41.6027 85.8082 42.008 88.4322 42.008C89.4562 42.008 90.4056 41.9547 91.2802 41.848C92.1762 41.72 93.0296 41.5493 93.8402 41.336C94.6509 41.1227 95.4296 40.856 96.1762 40.536C96.9442 40.216 97.7016 39.864 98.4482 39.48V29.848H91.6642C91.2376 29.848 90.8856 29.72 90.6082 29.464C90.3522 29.208 90.2242 28.888 90.2242 28.504V24.632H104.624ZM155.724 24.024C155.724 27.4587 155.169 30.616 154.06 33.496C152.972 36.3547 151.425 38.8293 149.42 40.92C147.414 42.9893 145.014 44.6 142.22 45.752C139.425 46.904 136.321 47.48 132.908 47.48C129.516 47.48 126.412 46.904 123.596 45.752C120.801 44.6 118.401 42.9893 116.396 40.92C114.412 38.8293 112.865 36.3547 111.756 33.496C110.646 30.616 110.092 27.4587 110.092 24.024C110.092 20.6107 110.646 17.464 111.756 14.584C112.865 11.704 114.412 9.22933 116.396 7.16C118.401 5.06933 120.801 3.448 123.596 2.296C126.412 1.12267 129.516 0.535999 132.908 0.535999C136.321 0.535999 139.425 1.12267 142.22 2.296C145.014 3.448 147.414 5.06933 149.42 7.16C151.425 9.22933 152.972 11.704 154.06 14.584C155.169 17.464 155.724 20.6107 155.724 24.024ZM148.748 24.024C148.748 21.2933 148.374 18.84 147.628 16.664C146.881 14.488 145.814 12.6427 144.428 11.128C143.062 9.61333 141.398 8.45067 139.436 7.64C137.494 6.82933 135.318 6.424 132.908 6.424C130.497 6.424 128.31 6.82933 126.348 7.64C124.406 8.45067 122.742 9.61333 121.356 11.128C119.969 12.6427 118.902 14.488 118.156 16.664C117.409 18.84 117.036 21.2933 117.036 24.024C117.036 26.776 117.409 29.24 118.156 31.416C118.902 33.5707 119.969 35.4053 121.356 36.92C122.742 38.4347 124.406 39.5973 126.348 40.408C128.31 41.1973 130.497 41.592 132.908 41.592C135.318 41.592 137.494 41.1973 139.436 40.408C141.398 39.5973 143.062 38.4347 144.428 36.92C145.814 35.4053 146.881 33.5707 147.628 31.416C148.374 29.24 148.748 26.776 148.748 24.024Z" fill="#F7F8FA"/>
</svg>
