<svg width="244" height="52" viewBox="0 0 244 52" fill="none" xmlns="http://www.w3.org/2000/svg">
<path d="M0.0124969 2.3125H7.1375L15.075 16.6875C16.7833 19.8542 18.325 22.7292 19.7 25.3125H19.8875C20.4292 24.3125 21.2208 22.8333 22.2625 20.875C23.3458 18.875 24.1167 17.4792 24.575 16.6875L32.45 2.3125H39.575L22.8875 30.5V50H16.825V30.5L0.0124969 2.3125ZM43.925 32.8125C43.925 37.0208 44.8625 40.3125 46.7375 42.6875C48.6125 45.0208 50.9042 46.1875 53.6125 46.1875C56.2792 46.1875 58.55 45.0208 60.425 42.6875C62.3 40.3125 63.2375 37.0208 63.2375 32.8125C63.2375 28.5208 62.3 25.2083 60.425 22.875C58.55 20.5417 56.2792 19.375 53.6125 19.375C50.9458 19.375 48.6542 20.5417 46.7375 22.875C44.8625 25.1667 43.925 28.4792 43.925 32.8125ZM37.925 32.8125C37.925 27.6042 39.2792 23.25 41.9875 19.75C44.6958 16.2083 48.5708 14.4375 53.6125 14.4375C58.5708 14.4375 62.4042 16.2083 65.1125 19.75C67.8625 23.25 69.2375 27.6042 69.2375 32.8125C69.2375 34.9792 68.9458 37.0833 68.3625 39.125C67.8208 41.1667 66.9667 43.125 65.8 45C64.675 46.8333 63.05 48.3125 60.925 49.4375C58.8 50.5625 56.3625 51.125 53.6125 51.125C50.8625 51.125 48.425 50.5833 46.3 49.5C44.2167 48.375 42.5708 46.8958 41.3625 45.0625C40.1958 43.2292 39.3208 41.2917 38.7375 39.25C38.1958 37.1667 37.925 35.0208 37.925 32.8125ZM75.2125 37.75V15.5625H81.0875V36.75C81.0875 43.0417 83.3583 46.1875 87.9 46.1875C90.65 46.1875 92.775 45.0833 94.275 42.875C95.775 40.6667 96.525 38.0625 96.525 35.0625V15.5625H102.337V50H96.7125V45H96.65C96.1917 46.375 95.1292 47.75 93.4625 49.125C91.7958 50.4583 89.5042 51.125 86.5875 51.125C83.3375 51.125 80.6292 50.0417 78.4625 47.875C76.2958 45.6667 75.2125 42.2917 75.2125 37.75ZM106.938 7.5V2.3125H141.5V7.5H127.25V50H121.188V7.5H106.938ZM141.725 37.75V15.5625H147.6V36.75C147.6 43.0417 149.871 46.1875 154.412 46.1875C157.162 46.1875 159.287 45.0833 160.787 42.875C162.287 40.6667 163.037 38.0625 163.037 35.0625V15.5625H168.85V50H163.225V45H163.162C162.704 46.375 161.642 47.75 159.975 49.125C158.308 50.4583 156.017 51.125 153.1 51.125C149.85 51.125 147.142 50.0417 144.975 47.875C142.808 45.6667 141.725 42.2917 141.725 37.75ZM177.825 50V0.625H183.637V20.9375C184.346 19.3125 185.575 17.8333 187.325 16.5C189.117 15.125 191.2 14.4375 193.575 14.4375C197.825 14.4375 201.304 16.0833 204.012 19.375C206.721 22.625 208.075 27.0833 208.075 32.75C208.075 35.9167 207.637 38.7292 206.762 41.1875C205.887 43.6458 204.721 45.5833 203.262 47C201.804 48.375 200.262 49.3958 198.637 50.0625C197.012 50.7708 195.325 51.125 193.575 51.125C191.283 51.125 189.242 50.4792 187.45 49.1875C185.658 47.8542 184.367 46.2708 183.575 44.4375V50H177.825ZM183.512 32.75C183.512 36.875 184.387 40.1458 186.137 42.5625C187.929 44.9792 190.137 46.1875 192.762 46.1875C195.471 46.1875 197.7 45.0208 199.45 42.6875C201.2 40.3125 202.075 37 202.075 32.75C202.075 28.6667 201.221 25.4167 199.512 23C197.804 20.5833 195.554 19.375 192.762 19.375C190.137 19.375 187.929 20.6042 186.137 23.0625C184.387 25.4792 183.512 28.7083 183.512 32.75ZM212.3 32.5625C212.3 27.1458 213.779 22.7708 216.738 19.4375C219.696 16.1042 223.488 14.4375 228.113 14.4375C232.738 14.4375 236.425 16.0833 239.175 19.375C241.967 22.6667 243.363 26.875 243.363 32C243.363 32.6667 243.321 33.5833 243.238 34.75H218.238C218.238 37.9167 219.133 40.6458 220.925 42.9375C222.758 45.1875 225.258 46.3125 228.425 46.3125C232.675 46.3125 235.779 44.4792 237.738 40.8125L242.675 42.375C241.592 44.9167 239.821 47.0208 237.363 48.6875C234.946 50.3125 231.946 51.125 228.363 51.125C223.571 51.125 219.696 49.4375 216.738 46.0625C213.779 42.6458 212.3 38.1458 212.3 32.5625ZM218.363 30.4375H237.425C237.425 27.3125 236.592 24.6667 234.925 22.5C233.258 20.3333 230.988 19.25 228.113 19.25C225.196 19.25 222.863 20.375 221.113 22.625C219.363 24.8333 218.446 27.4375 218.363 30.4375Z" fill="#F7F8FA"/>
</svg>
